<?xml version="1.0" encoding="utf-8"?>
<svg version="1.1" xmlns:xlink="http://www.w3.org/1999/xlink" width="25px" height="25px" xmlns="http://www.w3.org/2000/svg">
  <g transform="matrix(1 0 0 1 -319 -280 )">
    <path d="M 20.5240885416667 14.2740885416667  C 20.7302517361111 14.0679253472222  20.8333333333333 13.8237847222222  20.8333333333333 13.5416666666667  L 20.8333333333333 11.4583333333333  C 20.8333333333333 11.1762152777778  20.7302517361111 10.9320746527778  20.5240885416667 10.7259114583333  C 20.3179253472222 10.5197482638889  20.0737847222222 10.4166666666667  19.7916666666667 10.4166666666667  L 14.5833333333333 10.4166666666667  L 14.5833333333333 5.20833333333333  C 14.5833333333333 4.92621527777778  14.4802517361111 4.68207465277778  14.2740885416667 4.47591145833333  C 14.0679253472222 4.26974826388889  13.8237847222222 4.16666666666667  13.5416666666667 4.16666666666667  L 11.4583333333333 4.16666666666667  C 11.1762152777778 4.16666666666667  10.9320746527778 4.26974826388889  10.7259114583333 4.47591145833333  C 10.5197482638889 4.68207465277778  10.4166666666667 4.92621527777778  10.4166666666667 5.20833333333333  L 10.4166666666667 10.4166666666667  L 5.20833333333333 10.4166666666667  C 4.92621527777778 10.4166666666667  4.68207465277778 10.5197482638889  4.47591145833333 10.7259114583333  C 4.26974826388889 10.9320746527778  4.16666666666667 11.1762152777778  4.16666666666667 11.4583333333333  L 4.16666666666667 13.5416666666667  C 4.16666666666667 13.8237847222222  4.26974826388889 14.0679253472222  4.47591145833333 14.2740885416667  C 4.68207465277778 14.4802517361111  4.92621527777778 14.5833333333333  5.20833333333333 14.5833333333333  L 10.4166666666667 14.5833333333333  L 10.4166666666667 19.7916666666667  C 10.4166666666667 20.0737847222222  10.5197482638889 20.3179253472222  10.7259114583333 20.5240885416667  C 10.9320746527778 20.7302517361111  11.1762152777778 20.8333333333333  11.4583333333333 20.8333333333333  L 13.5416666666667 20.8333333333333  C 13.8237847222222 20.8333333333333  14.0679253472222 20.7302517361111  14.2740885416667 20.5240885416667  C 14.4802517361111 20.3179253472222  14.5833333333333 20.0737847222222  14.5833333333333 19.7916666666667  L 14.5833333333333 14.5833333333333  L 19.7916666666667 14.5833333333333  C 20.0737847222222 14.5833333333333  20.3179253472222 14.4802517361111  20.5240885416667 14.2740885416667  Z M 23.6246744791667 1.37532552083333  C 24.5415581597222 2.29220920138889  25 3.39626736111111  25 4.6875  L 25 20.3125  C 25 21.6037326388889  24.5415581597222 22.7077907986111  23.6246744791667 23.6246744791667  C 22.7077907986111 24.5415581597222  21.6037326388889 25  20.3125 25  L 4.6875 25  C 3.39626736111111 25  2.29220920138889 24.5415581597222  1.37532552083333 23.6246744791667  C 0.458441840277778 22.7077907986111  0 21.6037326388889  0 20.3125  L 0 4.6875  C 0 3.39626736111111  0.458441840277778 2.29220920138889  1.37532552083333 1.37532552083333  C 2.29220920138889 0.458441840277776  3.39626736111111 0  4.6875 0  L 20.3125 0  C 21.6037326388889 0  22.7077907986111 0.458441840277776  23.6246744791667 1.37532552083333  Z " fill-rule="nonzero" fill="#000000" stroke="none" transform="matrix(1 0 0 1 319 280 )" />
  </g>
</svg>