<?xml version="1.0" encoding="utf-8"?>
<svg version="1.1" xmlns:xlink="http://www.w3.org/1999/xlink" width="12px" height="12px" viewBox="396 686  12 12" xmlns="http://www.w3.org/2000/svg">
  <path d="M 402 686  C 405.36 686  408 688.64  408 692  C 408 695.36  405.36 698  402 698  C 398.64 698  396 695.36  396 692  C 396 688.64  398.64 686  402 686  Z " fill-rule="nonzero" fill="#f0f0f0" stroke="none" />
  <path d="M 402 686.5  C 405.08 686.5  407.5 688.92  407.5 692  C 407.5 695.08  405.08 697.5  402 697.5  C 398.92 697.5  396.5 695.08  396.5 692  C 396.5 688.92  398.92 686.5  402 686.5  Z " stroke-width="1" stroke="#797979" fill="none" />
  <path d="M 402 695  C 400.32 695  399 693.68  399 692  C 399 690.32  400.32 689  402 689  C 403.68 689  405 690.32  405 692  C 405 693.68  403.68 695  402 695  " fill-rule="nonzero" fill="#797979" stroke="none" />
</svg>