<?xml version="1.0" encoding="utf-8"?>
<svg version="1.1" xmlns:xlink="http://www.w3.org/1999/xlink" width="88px" height="32px" xmlns="http://www.w3.org/2000/svg">
  <g transform="matrix(1 0 0 1 -347 -384 )">
    <path d="M 347.5 411.735294117647  C 347.5 411.735294117647  347.5 384.5  347.5 384.5  C 347.5 384.5  434.5 384.5  434.5 384.5  C 434.5 384.5  434.5 411.735294117647  434.5 411.735294117647  C 434.5 411.735294117647  373.954898277413 411.735294117647  373.954898277413 411.735294117647  C 373.954898277413 411.735294117647  366.066666666667 415.44740311094  366.066666666667 415.44740311094  C 366.066666666667 415.44740311094  358.17843505592 411.735294117647  358.17843505592 411.735294117647  C 358.17843505592 411.735294117647  347.5 411.735294117647  347.5 411.735294117647  Z " fill-rule="nonzero" fill="#ffffff" stroke="none" />
    <path d="M 347 412.235294117647  C 347 412.235294117647  347 384  347 384  C 347 384  435 384  435 384  C 435 384  435 412.235294117647  435 412.235294117647  C 435 412.235294117647  374.066666666667 412.235294117647  374.066666666667 412.235294117647  C 374.066666666667 412.235294117647  366.066666666667 416  366.066666666667 416  C 366.066666666667 416  358.066666666667 412.235294117647  358.066666666667 412.235294117647  C 358.066666666667 412.235294117647  347 412.235294117647  347 412.235294117647  Z M 348 411.235294117647  C 348 411.235294117647  358.290203445174 411.235294117647  358.290203445174 411.235294117647  C 358.290203445174 411.235294117647  366.066666666667 414.894806221879  366.066666666667 414.894806221879  C 366.066666666667 414.894806221879  373.84312988816 411.235294117647  373.84312988816 411.235294117647  C 373.84312988816 411.235294117647  434 411.235294117647  434 411.235294117647  C 434 411.235294117647  434 385  434 385  C 434 385  348 385  348 385  C 348 385  348 411.235294117647  348 411.235294117647  Z " fill-rule="nonzero" fill="#797979" stroke="none" />
  </g>
</svg>