<?xml version="1.0" encoding="utf-8"?>
<svg version="1.1" xmlns:xlink="http://www.w3.org/1999/xlink" width="22px" height="22px" xmlns="http://www.w3.org/2000/svg">
  <g transform="matrix(1 0 0 1 -404 -509 )">
    <path d="M 15.533203125 15.533203125  C 16.3018663194444 14.7645399305556  16.8389756944444 13.8645833333333  17.14453125 12.8333333333333  L 15.5833333333333 12.8333333333333  C 15.3350694444444 12.8333333333333  15.1202256944444 12.7426215277778  14.9388020833333 12.5611979166667  C 14.7573784722222 12.3797743055556  14.6666666666667 12.1649305555556  14.6666666666667 11.9166666666667  L 14.6666666666667 10.0833333333333  C 14.6666666666667 9.83506944444444  14.7573784722222 9.62022569444444  14.9388020833333 9.43880208333333  C 15.1202256944444 9.25737847222222  15.3350694444444 9.16666666666667  15.5833333333333 9.16666666666667  L 17.14453125 9.16666666666667  C 16.8389756944444 8.13541666666667  16.3018663194444 7.23546006944444  15.533203125 6.466796875  C 14.7645399305556 5.69813368055555  13.8645833333333 5.16102430555555  12.8333333333333 4.85546875  L 12.8333333333333 6.41666666666667  C 12.8333333333333 6.66493055555555  12.7426215277778 6.87977430555555  12.5611979166667 7.06119791666667  C 12.3797743055556 7.24262152777778  12.1649305555556 7.33333333333333  11.9166666666667 7.33333333333333  L 10.0833333333333 7.33333333333333  C 9.83506944444445 7.33333333333333  9.62022569444445 7.24262152777778  9.43880208333333 7.06119791666667  C 9.25737847222222 6.87977430555555  9.16666666666667 6.66493055555555  9.16666666666667 6.41666666666667  L 9.16666666666667 4.85546875  C 8.13541666666667 5.16102430555555  7.23546006944444 5.69813368055555  6.466796875 6.466796875  C 5.69813368055556 7.23546006944444  5.16102430555556 8.13541666666667  4.85546875 9.16666666666667  L 6.41666666666667 9.16666666666667  C 6.66493055555556 9.16666666666667  6.87977430555556 9.25737847222222  7.06119791666667 9.43880208333333  C 7.24262152777778 9.62022569444444  7.33333333333333 9.83506944444444  7.33333333333333 10.0833333333333  L 7.33333333333333 11.9166666666667  C 7.33333333333333 12.1649305555556  7.24262152777778 12.3797743055556  7.06119791666667 12.5611979166667  C 6.87977430555556 12.7426215277778  6.66493055555556 12.8333333333333  6.41666666666667 12.8333333333333  L 4.85546875 12.8333333333333  C 5.16102430555556 13.8645833333333  5.69813368055556 14.7645399305556  6.466796875 15.533203125  C 7.23546006944444 16.3018663194444  8.13541666666667 16.8389756944444  9.16666666666667 17.14453125  L 9.16666666666667 15.5833333333333  C 9.16666666666667 15.3350694444444  9.25737847222222 15.1202256944444  9.43880208333333 14.9388020833333  C 9.62022569444445 14.7573784722222  9.83506944444445 14.6666666666667  10.0833333333333 14.6666666666667  L 11.9166666666667 14.6666666666667  C 12.1649305555556 14.6666666666667  12.3797743055556 14.7573784722222  12.5611979166667 14.9388020833333  C 12.7426215277778 15.1202256944444  12.8333333333333 15.3350694444444  12.8333333333333 15.5833333333333  L 12.8333333333333 17.14453125  C 13.8645833333333 16.8389756944444  14.7645399305556 16.3018663194444  15.533203125 15.533203125  Z M 21.7278645833333 9.43880208333333  C 21.9092881944444 9.62022569444444  22 9.83506944444444  22 10.0833333333333  L 22 11.9166666666667  C 22 12.1649305555556  21.9092881944444 12.3797743055556  21.7278645833333 12.5611979166667  C 21.5464409722222 12.7426215277778  21.3315972222222 12.8333333333333  21.0833333333333 12.8333333333333  L 19.03515625 12.8333333333333  C 18.6818576388889 14.3706597222222  17.9442274305556 15.7003038194444  16.822265625 16.822265625  C 15.7003038194444 17.9442274305556  14.3706597222222 18.6818576388889  12.8333333333333 19.03515625  L 12.8333333333333 21.0833333333333  C 12.8333333333333 21.3315972222222  12.7426215277778 21.5464409722222  12.5611979166667 21.7278645833333  C 12.3797743055556 21.9092881944444  12.1649305555556 22  11.9166666666667 22  L 10.0833333333333 22  C 9.83506944444445 22  9.62022569444445 21.9092881944444  9.43880208333333 21.7278645833333  C 9.25737847222222 21.5464409722222  9.16666666666667 21.3315972222222  9.16666666666667 21.0833333333333  L 9.16666666666667 19.03515625  C 7.62934027777778 18.6818576388889  6.29969618055556 17.9442274305556  5.177734375 16.822265625  C 4.05577256944444 15.7003038194444  3.31814236111111 14.3706597222222  2.96484375 12.8333333333333  L 0.916666666666667 12.8333333333333  C 0.668402777777778 12.8333333333333  0.453559027777778 12.7426215277778  0.272135416666667 12.5611979166667  C 0.0907118055555556 12.3797743055556  0 12.1649305555556  0 11.9166666666667  L 0 10.0833333333333  C 0 9.83506944444444  0.0907118055555556 9.62022569444444  0.272135416666667 9.43880208333333  C 0.453559027777778 9.25737847222222  0.668402777777778 9.16666666666667  0.916666666666667 9.16666666666667  L 2.96484375 9.16666666666667  C 3.31814236111111 7.62934027777778  4.05577256944444 6.29969618055555  5.177734375 5.177734375  C 6.29969618055556 4.05577256944444  7.62934027777778 3.31814236111111  9.16666666666667 2.96484375  L 9.16666666666667 0.916666666666666  C 9.16666666666667 0.668402777777775  9.25737847222222 0.453559027777775  9.43880208333333 0.272135416666666  C 9.62022569444445 0.0907118055555545  9.83506944444445 0  10.0833333333333 0  L 11.9166666666667 0  C 12.1649305555556 0  12.3797743055556 0.0907118055555545  12.5611979166667 0.272135416666666  C 12.7426215277778 0.453559027777775  12.8333333333333 0.668402777777775  12.8333333333333 0.916666666666666  L 12.8333333333333 2.96484375  C 14.3706597222222 3.31814236111111  15.7003038194444 4.05577256944444  16.822265625 5.177734375  C 17.9442274305556 6.29969618055555  18.6818576388889 7.62934027777778  19.03515625 9.16666666666667  L 21.0833333333333 9.16666666666667  C 21.3315972222222 9.16666666666667  21.5464409722222 9.25737847222222  21.7278645833333 9.43880208333333  Z " fill-rule="nonzero" fill="#000000" stroke="none" transform="matrix(1 0 0 1 404 509 )" />
  </g>
</svg>