<?xml version="1.0" encoding="utf-8"?>
<svg version="1.1" xmlns:xlink="http://www.w3.org/1999/xlink" width="10px" height="10px" xmlns="http://www.w3.org/2000/svg">
  <g transform="matrix(1 0 0 1 -419 -311 )">
    <path d="M 424 311  C 426.8 311  429 313.2  429 316  C 429 318.8  426.8 321  424 321  C 421.2 321  419 318.8  419 316  C 419 313.2  421.2 311  424 311  Z " fill-rule="nonzero" fill="#ffffff" stroke="none" />
    <path d="M 424 311.5  C 426.52 311.5  428.5 313.48  428.5 316  C 428.5 318.52  426.52 320.5  424 320.5  C 421.48 320.5  419.5 318.52  419.5 316  C 419.5 313.48  421.48 311.5  424 311.5  Z " stroke-width="1" stroke="#797979" fill="none" />
  </g>
</svg>