<?xml version="1.0" encoding="utf-8"?>
<svg version="1.1" xmlns:xlink="http://www.w3.org/1999/xlink" width="12px" height="12px" viewBox="285 497  12 12" xmlns="http://www.w3.org/2000/svg">
  <path d="M 291 497  C 294.36 497  297 499.64  297 503  C 297 506.36  294.36 509  291 509  C 287.64 509  285 506.36  285 503  C 285 499.64  287.64 497  291 497  Z " fill-rule="nonzero" fill="#ffffff" stroke="none" />
  <path d="M 291 497.5  C 294.08 497.5  296.5 499.92  296.5 503  C 296.5 506.08  294.08 508.5  291 508.5  C 287.92 508.5  285.5 506.08  285.5 503  C 285.5 499.92  287.92 497.5  291 497.5  Z " stroke-width="1" stroke="#797979" fill="none" />
  <path d="M 291 506  C 289.32 506  288 504.68  288 503  C 288 501.32  289.32 500  291 500  C 292.68 500  294 501.32  294 503  C 294 504.68  292.68 506  291 506  " fill-rule="nonzero" fill="#797979" stroke="none" />
</svg>