<?xml version="1.0" encoding="utf-8"?>
<svg version="1.1" xmlns:xlink="http://www.w3.org/1999/xlink" width="12px" height="12px" viewBox="365 497  12 12" xmlns="http://www.w3.org/2000/svg">
  <path d="M 371 497  C 374.36 497  377 499.64  377 503  C 377 506.36  374.36 509  371 509  C 367.64 509  365 506.36  365 503  C 365 499.64  367.64 497  371 497  Z " fill-rule="nonzero" fill="#f0f0f0" stroke="none" />
  <path d="M 371 497.5  C 374.08 497.5  376.5 499.92  376.5 503  C 376.5 506.08  374.08 508.5  371 508.5  C 367.92 508.5  365.5 506.08  365.5 503  C 365.5 499.92  367.92 497.5  371 497.5  Z " stroke-width="1" stroke="#797979" fill="none" />
  <path d="M 371 506  C 369.32 506  368 504.68  368 503  C 368 501.32  369.32 500  371 500  C 372.68 500  374 501.32  374 503  C 374 504.68  372.68 506  371 506  " fill-rule="nonzero" fill="#797979" stroke="none" />
</svg>