<?xml version="1.0" encoding="utf-8"?>
<svg version="1.1" xmlns:xlink="http://www.w3.org/1999/xlink" width="15px" height="15px" xmlns="http://www.w3.org/2000/svg">
  <g transform="matrix(1 0 0 1 -278 -229 )">
    <path d="M 14.4951923076923 5.37807183364841  C 14.8317307692308 5.4347826086957  15 5.5797101449275  15 5.81285444234403  C 15 5.95148078134841  14.921875 6.10270951480778  14.765625 6.26654064272216  L 11.4933894230769 9.61247637051045  L 12.2686298076923 14.3383742911153  C 12.2746394230769 14.3824826717076  12.2776442307692 14.4454946439824  12.2776442307692 14.5274102079394  C 12.2776442307692 14.6597353497164  12.24609375 14.7715816005041  12.1829927884615 14.8629489603024  C 12.1198918269231 14.9543163201009  12.0282451923077 15  11.9080528846154 15  C 11.7938701923077 15  11.6736778846154 14.9621928166351  11.5474759615385 14.8865784499056  L 7.5 12.65595463138  L 3.45252403846153 14.8865784499056  C 3.3203125 14.9621928166351  3.20012019230766 15  3.0919471153846 15  C 2.96574519230766 15  2.87109375 14.9543163201009  2.80799278846153 14.8629489603024  C 2.7448918269231 14.7715816005041  2.71334134615383 14.6597353497164  2.71334134615383 14.5274102079394  C 2.71334134615383 14.4896030245747  2.71935096153847 14.4265910522999  2.73137019230766 14.3383742911153  L 3.5066105769231 9.61247637051045  L 0.225360576923102 6.26654064272216  C 0.075120192307665 6.09640831758028  0 5.94517958412098  0 5.81285444234403  C 0 5.5797101449275  0.168269230769234 5.4347826086957  0.504807692307665 5.37807183364841  L 5.0300480769231 4.68809073724017  L 7.05829326923077 0.38752362948955  C 7.17247596153847 0.12917454316316  7.31971153846153 0  7.5 0  C 7.68028846153847 0  7.82752403846153 0.12917454316316  7.94170673076927 0.38752362948955  L 9.9699519230769 4.68809073724017  L 14.4951923076923 5.37807183364841  Z " fill-rule="nonzero" fill="#333333" stroke="none" transform="matrix(1 0 0 1 278 229 )" />
  </g>
</svg>