<?xml version="1.0" encoding="utf-8"?>
<svg version="1.1" xmlns:xlink="http://www.w3.org/1999/xlink" width="15px" height="15px" xmlns="http://www.w3.org/2000/svg">
  <g transform="matrix(1 0 0 1 -347 -229 )">
    <path d="M 10.2497693912872 9.18714555765597  L 10.6915015585065 8.74291115311905  L 13.008341700861 6.37996219281661  L 9.79902228187978 5.88846880907369  L 9.20403609746188 5.79395085066167  L 8.93358783181739 5.22684310018903  L 7.50021202390162 2.18336483931949  L 7.50021202390162 11.2854442344045  L 8.03209361300247 11.578449905482  L 10.898845228834 13.1663516068053  L 10.357948697545 9.81096408317583  L 10.2497693912872 9.18714555765597  Z M 14.9826140400657 5.70415879017013  C 15.0367036931946 5.87744171392572  14.9645841556894 6.06490233144299  14.7662554275501 6.26654064272216  L 11.4938314132518 9.61247637051045  L 12.2691164414328 14.3383742911153  C 12.2991662487266 14.5463137996219  12.2811363643502 14.7085696282294  12.2150267883038 14.8251417769376  C 12.1489172122574 14.9417139256459  12.0467478674583 15  11.9085187539067 15  C 11.8063494091077 15  11.6861501799324 14.9621928166351  11.5479210663807 14.8865784499056  L 7.50021202390162 12.65595463138  L 3.45250298142243 14.8865784499056  C 3.31427386787084 14.9621928166351  3.19407463869553 15  3.09190529389653 15  C 2.9536761803449 15  2.85150683554587 14.9417139256459  2.78539725949944 14.8251417769376  C 2.71928768345298 14.7085696282294  2.70125779907669 14.5463137996219  2.73130760637056 14.3383742911153  L 3.50659263455142 9.61247637051045  L 0.225153678064984 6.26654064272216  C 0.0328349113844695 6.06490233144299  -0.0362796453913106 5.87744171392572  0.0178100077375376 5.70415879017013  C 0.0718996608664568 5.5308758664146  0.234168620253143 5.4221802142407  0.504616885897597 5.37807183364841  L 5.03011786434865 4.68809073724003  L 7.05847985668228 0.38752362948955  C 7.17867908585763 0.12917454316316  7.32592314159739 0  7.50021202390162 0  C 7.66849094474708 0  7.81573500048687 0.12917454316316  7.94194419112095 0.38752362948955  L 9.97030618345455 4.68809073724003  L 14.4958071619056 5.37807183364841  C 14.7662554275501 5.4221802142407  14.9285243869368 5.5308758664146  14.9826140400657 5.70415879017013  Z " fill-rule="nonzero" fill="#333333" stroke="none" transform="matrix(1 0 0 1 347 229 )" />
  </g>
</svg>