<?xml version="1.0" encoding="utf-8"?>
<svg version="1.1" xmlns:xlink="http://www.w3.org/1999/xlink" width="12px" height="12px" viewBox="301 307  12 12" xmlns="http://www.w3.org/2000/svg">
  <path d="M 307 307  C 310.36 307  313 309.64  313 313  C 313 316.36  310.36 319  307 319  C 303.64 319  301 316.36  301 313  C 301 309.64  303.64 307  307 307  Z " fill-rule="nonzero" fill="#ffffff" stroke="none" />
  <path d="M 307 307.5  C 310.08 307.5  312.5 309.92  312.5 313  C 312.5 316.08  310.08 318.5  307 318.5  C 303.92 318.5  301.5 316.08  301.5 313  C 301.5 309.92  303.92 307.5  307 307.5  Z " stroke-width="1" stroke="#797979" fill="none" />
  <path d="M 307 316  C 305.32 316  304 314.68  304 313  C 304 311.32  305.32 310  307 310  C 308.68 310  310 311.32  310 313  C 310 314.68  308.68 316  307 316  " fill-rule="nonzero" fill="#797979" stroke="none" />
</svg>