<?xml version="1.0" encoding="utf-8"?>
<svg version="1.1" xmlns:xlink="http://www.w3.org/1999/xlink" width="12px" height="12px" viewBox="375 307  12 12" xmlns="http://www.w3.org/2000/svg">
  <path d="M 381 307  C 384.36 307  387 309.64  387 313  C 387 316.36  384.36 319  381 319  C 377.64 319  375 316.36  375 313  C 375 309.64  377.64 307  381 307  Z " fill-rule="nonzero" fill="#ffffff" stroke="none" />
  <path d="M 381 307.5  C 384.08 307.5  386.5 309.92  386.5 313  C 386.5 316.08  384.08 318.5  381 318.5  C 377.92 318.5  375.5 316.08  375.5 313  C 375.5 309.92  377.92 307.5  381 307.5  Z " stroke-width="1" stroke="#797979" fill="none" />
  <path d="M 381 316  C 379.32 316  378 314.68  378 313  C 378 311.32  379.32 310  381 310  C 382.68 310  384 311.32  384 313  C 384 314.68  382.68 316  381 316  " fill-rule="nonzero" fill="#797979" stroke="none" />
</svg>