<?xml version="1.0" encoding="utf-8"?>
<svg version="1.1" xmlns:xlink="http://www.w3.org/1999/xlink" width="12px" height="12px" viewBox="391 650  12 12" xmlns="http://www.w3.org/2000/svg">
  <path d="M 397 650  C 400.36 650  403 652.64  403 656  C 403 659.36  400.36 662  397 662  C 393.64 662  391 659.36  391 656  C 391 652.64  393.64 650  397 650  Z " fill-rule="nonzero" fill="#ffffff" stroke="none" />
  <path d="M 397 650.5  C 400.08 650.5  402.5 652.92  402.5 656  C 402.5 659.08  400.08 661.5  397 661.5  C 393.92 661.5  391.5 659.08  391.5 656  C 391.5 652.92  393.92 650.5  397 650.5  Z " stroke-width="1" stroke="#797979" fill="none" />
  <path d="M 397 659  C 395.32 659  394 657.68  394 656  C 394 654.32  395.32 653  397 653  C 398.68 653  400 654.32  400 656  C 400 657.68  398.68 659  397 659  " fill-rule="nonzero" fill="#797979" stroke="none" />
</svg>