<?xml version="1.0" encoding="utf-8"?>
<svg version="1.1" xmlns:xlink="http://www.w3.org/1999/xlink" width="12px" height="12px" viewBox="391 787  12 12" xmlns="http://www.w3.org/2000/svg">
  <path d="M 397 787  C 400.36 787  403 789.64  403 793  C 403 796.36  400.36 799  397 799  C 393.64 799  391 796.36  391 793  C 391 789.64  393.64 787  397 787  Z " fill-rule="nonzero" fill="#ffffff" stroke="none" />
  <path d="M 397 787.5  C 400.08 787.5  402.5 789.92  402.5 793  C 402.5 796.08  400.08 798.5  397 798.5  C 393.92 798.5  391.5 796.08  391.5 793  C 391.5 789.92  393.92 787.5  397 787.5  Z " stroke-width="1" stroke="#797979" fill="none" />
  <path d="M 397 796  C 395.32 796  394 794.68  394 793  C 394 791.32  395.32 790  397 790  C 398.68 790  400 791.32  400 793  C 400 794.68  398.68 796  397 796  " fill-rule="nonzero" fill="#797979" stroke="none" />
</svg>