<?xml version="1.0" encoding="utf-8"?>
<svg version="1.1" xmlns:xlink="http://www.w3.org/1999/xlink" width="36px" height="41px" xmlns="http://www.w3.org/2000/svg">
  <g transform="matrix(1 0 0 1 -240 -232 )">
    <path d="M 35.9105113636364 31.3238932291666  C 35.9701704545455 32.2225477430556  36 33.1434461805556  36 34.0865885416666  C 36 36.2220052083334  35.3778409090909 37.9080946180556  34.1335227272727 39.1448567708334  C 32.8892045454545 40.381618923611  31.2357954545455 41  29.1732954545455 41  L 6.8267045454545 41  C 4.7642045454545 41  3.1107954545455 40.381618923611  1.86647727272731 39.1448567708334  C 0.622159090909093 37.9080946180556  0 36.2220052083334  0 34.0865885416666  C 0 33.1434461805556  0.0298295454545325 32.2225477430556  0.0894886363636545 31.3238932291666  C 0.149147727272748 30.4252387152778  0.268465909090907 29.4554036458334  0.447443181818187 28.4143880208334  C 0.626420454545467 27.3733723958334  0.852272727272748 26.407986111111  1.125 25.5182291666666  C 1.39772727272725 24.6284722222222  1.76420454545453 23.760959201389  2.22443181818181 22.9156901041666  C 2.68465909090907 22.0704210069444  3.21306818181819 21.3497178819444  3.80965909090907 20.7535807291666  C 4.40625 20.157443576389  5.13494318181819 19.681423611111  5.99573863636363 19.3255208333334  C 6.85653409090907 18.9696180555556  7.80681818181819 18.7916666666666  8.84659090909093 18.7916666666666  C 9 18.7916666666666  9.3579545454545 18.9829644097222  9.9204545454545 19.3655598958334  C 10.4829545454546 19.7481553819444  11.1178977272727 20.1752387152778  11.8252840909091 20.6468098958334  C 12.5326704545455 21.118381076389  13.453125 21.5454644097222  14.5866477272727 21.9280598958334  C 15.7201704545455 22.3106553819444  16.8579545454545 22.501953125  18 22.501953125  C 19.1420454545455 22.501953125  20.2798295454545 22.3106553819444  21.4133522727273 21.9280598958334  C 22.546875 21.5454644097222  23.4673295454545 21.118381076389  24.1747159090909 20.6468098958334  C 24.8821022727273 20.1752387152778  25.5170454545455 19.7481553819444  26.0795454545455 19.3655598958334  C 26.6420454545455 18.9829644097222  27 18.7916666666666  27.1534090909091 18.7916666666666  C 28.1931818181818 18.7916666666666  29.1434659090909 18.9696180555556  30.0042613636364 19.3255208333334  C 30.8650568181818 19.681423611111  31.59375 20.157443576389  32.1903409090909 20.7535807291666  C 32.7869318181818 21.3497178819444  33.3153409090909 22.0704210069444  33.7755681818182 22.9156901041666  C 34.2357954545455 23.760959201389  34.6022727272727 24.6284722222222  34.875 25.5182291666666  C 35.1477272727273 26.407986111111  35.3735795454545 27.3733723958334  35.5525568181818 28.4143880208334  C 35.7315340909091 29.4554036458334  35.8508522727273 30.4252387152778  35.9105113636364 31.3238932291666  Z M 24.9417613636364 3.0029296875  C 26.859375 5.0048828125  27.8181818181818 7.42057291666657  27.8181818181818 10.25  C 27.8181818181818 13.0794270833334  26.859375 15.4951171875  24.9417613636364 17.4970703125  C 23.0241477272727 19.4990234375  20.7102272727273 20.5  18 20.5  C 15.2897727272727 20.5  12.9758522727273 19.4990234375  11.0582386363636 17.4970703125  C 9.140625 15.4951171875  8.18181818181819 13.0794270833334  8.18181818181819 10.25  C 8.18181818181819 7.42057291666657  9.140625 5.0048828125  11.0582386363636 3.0029296875  C 12.9758522727273 1.0009765625  15.2897727272727 0  18 0  C 20.7102272727273 0  23.0241477272727 1.0009765625  24.9417613636364 3.0029296875  Z " fill-rule="nonzero" fill="#333333" stroke="none" transform="matrix(1 0 0 1 240 232 )" />
  </g>
</svg>