<?xml version="1.0" encoding="utf-8"?>
<svg version="1.1" xmlns:xlink="http://www.w3.org/1999/xlink" width="25px" height="25px" xmlns="http://www.w3.org/2000/svg">
  <g transform="matrix(1 0 0 1 -289 -345 )">
    <path d="M 17.0829489854787 15.3119092627599  L 17.8191692641776 14.5715185885318  L 21.680569501435 10.633270321361  L 16.331703803133 9.81411468178948  L 15.3400601624365 9.65658475110279  L 14.889313053029 8.71140516698172  L 12.5003533731694 3.63894139886582  L 12.5003533731694 18.8090737240075  L 13.3868226883375 19.2974165091366  L 18.1647420480566 21.9439193446754  L 17.2632478292417 16.3516068052931  L 17.0829489854787 15.3119092627599  Z M 24.9710234001096 9.50693131695021  C 25.061172821991 9.7957361898762  24.9409735928157 10.108170552405  24.6104257125835 10.4442344045369  L 19.1563856887531 16.0207939508508  L 20.4485274023879 23.8972904851922  C 20.4986104145443 24.2438563327031  20.4685606072504 24.5142827137156  20.3583779805064 24.7085696282293  C 20.2481953537623 24.9028565427431  20.0779131124306 25  19.8475312565112 25  C 19.6772490151795 25  19.4769169665539 24.9369880277252  19.2465351106346 24.8109640831759  L 12.5003533731694 21.0932577189666  L 5.75417163570406 24.8109640831759  C 5.52378977978473 24.9369880277252  5.32345773115921 25  5.15317548982755 25  C 4.92279363390817 25  4.75251139257645 24.9028565427431  4.6423287658324 24.7085696282293  C 4.53214613908829 24.5142827137156  4.50209633179449 24.2438563327031  4.55217934395093 23.8972904851922  L 5.84432105758571 16.0207939508508  L 0.375256130108307 10.4442344045369  C 0.0547248523074491 10.108170552405  -0.0604660756521843 9.7957361898762  0.0296833462292293 9.50693131695021  C 0.119832768110761 9.21812644402434  0.390281033755239 9.03696702373449  0.841028143162662 8.96345305608068  L 8.38352977391441 7.81348456206672  L 11.7641330944705 0.645872715815917  C 11.9644651430961 0.215290905271933  12.2098719026623 0  12.5003533731694 0  C 12.7808182412451 0  13.0262250008114 0.215290905271933  13.2365736518683 0.645872715815917  L 16.6171769724243 7.81348456206672  L 24.1596786031761 8.96345305608068  C 24.6104257125835 9.03696702373449  24.880873978228 9.21812644402434  24.9710234001096 9.50693131695021  Z " fill-rule="nonzero" fill="#333333" stroke="none" transform="matrix(1 0 0 1 289 345 )" />
  </g>
</svg>