<?xml version="1.0" encoding="utf-8"?>
<svg version="1.1" xmlns:xlink="http://www.w3.org/1999/xlink" width="25px" height="25px" xmlns="http://www.w3.org/2000/svg">
  <g transform="matrix(1 0 0 1 -175 -345 )">
    <path d="M 24.1586538461539 8.96345305608068  C 24.7195512820513 9.05797101449283  25 9.29951690821251  25 9.68809073724006  C 25 9.91913463558068  24.8697916666667 10.1711825246796  24.609375 10.4442344045369  L 19.1556490384615 16.0207939508508  L 20.4477163461539 23.8972904851922  C 20.4577323717949 23.9708044528461  20.4627403846154 24.0758244066373  20.4627403846154 24.2123503465657  C 20.4627403846154 24.4328922495273  20.41015625 24.6193026675068  20.3049879807692 24.7715816005041  C 20.1998197115385 24.9238605335015  20.0470753205128 25  19.8467548076923 25  C 19.6564503205128 25  19.4561298076923 24.9369880277252  19.2457932692308 24.8109640831759  L 12.5 21.0932577189666  L 5.75420673076922 24.8109640831759  C 5.53385416666667 24.9369880277252  5.33353365384611 25  5.15324519230766 25  C 4.94290865384611 25  4.78515625 24.9238605335015  4.67998798076922 24.7715816005041  C 4.5748197115385 24.6193026675068  4.52223557692305 24.4328922495273  4.52223557692305 24.2123503465657  C 4.52223557692305 24.1493383742912  4.53225160256411 24.0443184204999  4.55228365384611 23.8972904851922  L 5.8443509615385 16.0207939508508  L 0.375600961538503 10.4442344045369  C 0.125200320512775 10.1606805293005  0 9.90863264020163  0 9.68809073724006  C 0 9.29951690821251  0.280448717948723 9.05797101449283  0.841346153846108 8.96345305608068  L 8.3834134615385 7.81348456206696  L 11.7638221153846 0.645872715815917  C 11.9541266025641 0.215290905271933  12.1995192307692 0  12.5 0  C 12.8004807692308 0  13.0458733974359 0.215290905271933  13.2361778846154 0.645872715815917  L 16.6165865384615 7.81348456206696  L 24.1586538461539 8.96345305608068  Z " fill-rule="nonzero" fill="#333333" stroke="none" transform="matrix(1 0 0 1 175 345 )" />
  </g>
</svg>