<?xml version="1.0" encoding="utf-8"?>
<svg version="1.1" xmlns:xlink="http://www.w3.org/1999/xlink" width="10px" height="10px" xmlns="http://www.w3.org/2000/svg">
  <g transform="matrix(1 0 0 1 -221 -285 )">
    <path d="M 9.66346153846156 3.58538122243227  C 9.88782051282051 3.62318840579713  10 3.719806763285  10 3.87523629489602  C 10 3.96765385423227  9.94791666666667 4.06847300987186  9.84375 4.17769376181478  L 7.6622596153846 6.4083175803403  L 8.17908653846156 9.55891619407689  C 8.18309294871796 9.58832178113842  8.18509615384616 9.6303297626549  8.18509615384616 9.68494013862629  C 8.18509615384616 9.77315689981092  8.1640625 9.84772106700272  8.12199519230769 9.90863264020163  C 8.0799278846154 9.96954421340059  8.01883012820511 10  7.93870192307693 10  C 7.86258012820511 10  7.78245192307693 9.97479521109009  7.69831730769231 9.92438563327037  L 5 8.43730308758666  L 2.30168269230769 9.92438563327037  C 2.21354166666667 9.97479521109009  2.13341346153844 10  2.06129807692307 10  C 1.97716346153844 10  1.9140625 9.96954421340059  1.87199519230769 9.90863264020163  C 1.8299278846154 9.84772106700272  1.80889423076922 9.77315689981092  1.80889423076922 9.68494013862629  C 1.80889423076922 9.65973534971648  1.81290064102564 9.61772736819995  1.82091346153844 9.55891619407689  L 2.3377403846154 6.4083175803403  L 0.150240384615401 4.17769376181478  C 0.05008012820511 4.06427221172019  0 3.96345305608065  0 3.87523629489602  C 0 3.719806763285  0.112179487179489 3.62318840579713  0.336538461538443 3.58538122243227  L 3.3533653846154 3.12539382482678  L 4.70552884615384 0.258349086326367  C 4.78165064102564 0.0861163621087731  4.87980769230769 0  5 0  C 5.12019230769231 0  5.21834935897436 0.0861163621087731  5.29447115384618 0.258349086326367  L 6.6466346153846 3.12539382482678  L 9.66346153846156 3.58538122243227  Z " fill-rule="nonzero" fill="#333333" stroke="none" transform="matrix(1 0 0 1 221 285 )" />
  </g>
</svg>