<?xml version="1.0" encoding="utf-8"?>
<svg version="1.1" xmlns:xlink="http://www.w3.org/1999/xlink" width="10px" height="10px" xmlns="http://www.w3.org/2000/svg">
  <g transform="matrix(1 0 0 1 -268 -285 )">
    <path d="M 6.83317959419147 6.12476370510398  L 7.12766770567102 5.8286074354127  L 8.67222780057399 4.2533081285444  L 6.53268152125319 3.92564587271579  L 6.13602406497459 3.86263390044112  L 5.95572522121159 3.48456206679269  L 5.00014134926774 1.45557655954633  L 5.00014134926774 7.52362948960302  L 5.35472907533498 7.71896660365466  L 7.26589681922266 8.77756773787018  L 6.90529913169667 6.54064272211722  L 6.83317959419147 6.12476370510398  Z M 9.98840936004382 3.80277252678008  C 10.0244691287964 3.91829447595048  9.97638943712628 4.043268220962  9.84417028503339 4.17769376181478  L 7.66255427550123 6.4083175803403  L 8.17941096095517 9.55891619407689  C 8.19944416581772 9.69754253308125  8.18742424290015 9.80571308548624  8.14335119220255 9.88342785129172  C 8.09927814150493 9.96114261709726  8.03116524497222 10  7.93901250260449 10  C 7.87089960607181 10  7.79076678662157 9.97479521109009  7.69861404425382 9.92438563327037  L 5.00014134926774 8.43730308758666  L 2.30166865428162 9.92438563327037  C 2.20951591191389 9.97479521109009  2.12938309246368 10  2.06127019593102 10  C 1.96911745356327 10  1.90100455703058 9.96114261709726  1.85693150633296 9.88342785129172  C 1.81285845563532 9.80571308548624  1.8008385327178 9.69754253308125  1.82087173758037 9.55891619407689  L 2.33772842303428 6.4083175803403  L 0.150102452043323 4.17769376181478  C 0.0218899409229797 4.043268220962  -0.0241864302608737 3.91829447595048  0.0118733384916917 3.80277252678008  C 0.0479331072443046 3.68725057760974  0.156112413502096 3.6147868094938  0.336411257265065 3.58538122243227  L 3.35341190956576 3.12539382482669  L 4.70565323778819 0.258349086326367  C 4.78578605723842 0.0861163621087731  4.88394876106492 0  5.00014134926774 0  C 5.11232729649805 0  5.21049000032458 0.0861163621087731  5.2946294607473 0.258349086326367  L 6.6468707889697 3.12539382482669  L 9.66387144127042 3.58538122243227  C 9.84417028503339 3.6147868094938  9.95234959129119 3.68725057760974  9.98840936004382 3.80277252678008  Z " fill-rule="nonzero" fill="#333333" stroke="none" transform="matrix(1 0 0 1 268 285 )" />
  </g>
</svg>